<svg id="Layer_1" data-name="Layer 1" xmlns="http://www.w3.org/2000/svg" viewBox="0 0 50 50"><defs><style>.cls-1{fill:#8417cd;}.cls-2{fill:#a20096;}</style></defs><title>Artboard 1</title><polygon class="cls-1" points="25 39.62 10.16 47.42 12.99 30.9 0.99 19.2 17.58 16.79 25 1.75 32.42 16.79 49.01 19.2 37.01 30.9 39.84 47.42 25 39.62"/><path class="cls-1" d="M25,2.88l6.86,13.89.23.47.52.08,15.33,2.23L36.84,30.36l-.37.37.09.51,2.62,15.27L25.47,39.3,25,39.06l-.47.24L10.82,46.51l2.62-15.27.09-.51-.37-.37L2.06,19.55l15.33-2.23.52-.08.23-.47L25,2.88M25,.62,17.25,16.33-.09,18.85,12.46,31.08l-3,17.26L25,40.19l15.5,8.15-3-17.26L50.09,18.85,32.75,16.33,25,.62Z"/><polygon class="cls-2" points="22.73 30.44 17.68 29.68 21.35 26.13 20.51 21.1 25.02 23.49 29.55 21.14 28.66 26.17 32.3 29.75 27.25 30.45 24.97 35.02 22.73 30.44"/><path class="cls-2" d="M21.17,22l3.38,1.79.47.25.46-.24,3.4-1.77-.66,3.77-.1.52.38.37,2.73,2.68-3.79.53-.52.08-.24.47L25,33.89l-1.68-3.44L23.06,30l-.52-.08-3.78-.57,2.75-2.65.38-.37-.09-.52L21.17,22m-1.32-1.84,1,5.78L16.61,30l5.79.87L25,36.15l2.62-5.24,5.79-.81L29.2,26l1-5.76L25,22.93l-5.17-2.75Z"/></svg>